<svg xmlns="http://www.w3.org/2000/svg" id="Camada_2" data-name="Camada 2" viewBox="0 0 543.8 143.98"><defs><style>      .cls-1 {        fill: #ff6432;      }    </style></defs><g id="Camada_1-2" data-name="Camada 1"><g><path class="cls-1" d="M36,107.99h42v36H0v-59.99c0-9.94,8.06-18,18-18h18v42ZM59.99,77.99h-12v18h18v-12c0-3.31-2.69-6-6-6ZM125.99,0H53.99c-9.94,0-18,8.06-18,18v47.99h24c2.67.01,5.31.63,7.71,1.8l31.8-31.8h-21.51v-12h42v42h-12v-21.51l-31.8,31.8c1.18,2.4,1.79,5.04,1.8,7.72v24h65.99V18c0-9.94-8.06-18-18-18Z"></path><g><g><path class="cls-1" d="M197.37,37.67l-10.5,12.43h-2.05l-10.26-12.38v24.4h-11.5V21.07h12.14l10.79,13.9,10.79-13.9h12.08v41.06h-11.5v-24.46Z"></path><path class="cls-1" d="M244.99,50.69h-20.23c.76,2.58,4.11,3.7,6.45,3.7,3.17,0,5.57-.94,7.45-2.35l5.28,5.92c-3.46,3.23-8.21,4.81-13.2,4.81-9.15,0-16.89-4.52-16.89-15.07s8.27-15.25,16.13-15.25c10.26,0,17.48,6.8,15.01,18.24ZM235.31,43.77c-.29-4.58-9.79-4.75-10.5,0h10.5Z"></path><path class="cls-1" d="M269.74,62.13v-16.01c0-3.58-2.05-4.81-4.05-4.81-2.58,0-4.99,1.76-4.99,5.57v15.25h-10.67v-28.97h9.56l.47,3.17c2.46-2.87,6.1-3.93,9.15-3.87,6.1.06,11.32,3.28,11.32,13.61v16.07h-10.79Z"></path><path class="cls-1" d="M299.83,24.94v8.39h6.51v8.27h-6.57v9.5c.06,2.05,1.23,2.82,2.87,2.82,1.06,0,2.29-.41,3.17-1l2.35,7.98c-2.46,1.41-5.34,1.94-8.33,1.94-5.75,0-10.91-2.64-10.73-11.73v-9.5h-4.63v-8.27h4.63v-7.21l10.73-1.17Z"></path><path class="cls-1" d="M343.11,47.7c0,10.56-8.39,15.13-16.54,15.13s-16.54-4.57-16.54-15.13,8.15-15.19,16.54-15.19,16.54,4.63,16.54,15.19ZM332.55,47.7c0-3.34-2.17-6.33-5.98-6.33s-5.98,2.99-5.98,6.33,2.17,6.28,5.98,6.28,5.98-2.76,5.98-6.28Z"></path><path class="cls-1" d="M357.54,33.15l.65,3.17c1.52-2.7,4.22-3.87,7.04-3.87s5.75,1.11,7.63,3.11l-4.34,7.8c-1.76-1.41-3.05-1.76-4.87-1.76-2.7,0-4.99,1.64-4.99,5.45v15.07h-10.79v-28.97h9.68Z"></path><path class="cls-1" d="M381,20.25c2.99,0,6.04,1.82,6.04,5.45s-3.05,5.4-6.04,5.4-6.1-1.82-6.1-5.4,3.05-5.45,6.1-5.45ZM386.39,62.13v-28.5h-10.85v28.5h10.85Z"></path><path class="cls-1" d="M414.25,33.15h10.15v28.97h-9.97l-.47-3.11c-2.46,2.82-6.33,3.81-9.56,3.64-8.5-.53-13.25-6.57-13.25-15.01s5.63-15.13,14.08-15.13c4.11,0,6.98,1.41,8.5,3.75l.53-3.11ZM401.88,47.64c0,4.05,2.58,6.33,5.81,6.33,3.64,0,5.98-2.93,5.98-6.33,0-3.87-2.17-6.39-5.98-6.39-3.23,0-5.81,2.35-5.81,6.39Z"></path></g><g><path class="cls-1" d="M188.34,92.88c-2.82-2.11-6.04-2.82-9.62-2.82-2.82,0-5.57.88-5.57,3.05,0,2.82,2.76,3.23,6.8,3.64,8.15.88,16.66,4.16,16.66,13.61s-8.8,13.31-18.01,13.37c-7.39.06-12.67-1.23-18.36-7.21l6.39-7.33c4.05,3.93,8.56,4.63,12.02,4.63,3.81,0,6.45-1.35,6.45-3.64,0-2.05-2.35-3.34-6.86-3.75-8.97-.82-16.72-3.11-16.72-13.31,0-8.68,8.5-12.43,17.19-12.43,6.16,0,10.97,1.41,15.37,4.87l-5.75,7.33Z"></path><path class="cls-1" d="M227.93,118.22c-3.46,3.11-7.62,4.93-11.96,4.93-8.45,0-16.42-4.16-16.42-15.01s8.09-15.19,16.25-15.19c4.16,0,8.33,1.47,11.38,4.52l-5.75,6.22c-1.41-1.47-3.05-2.11-4.99-2.11-4.11,0-6.33,2.99-6.33,6.63,0,3.17,2.17,5.98,6.28,5.98,1.99,0,3.93-.82,5.4-2.41l6.16,6.45Z"></path><path class="cls-1" d="M252.38,93.58h10.15v28.97h-9.97l-.47-3.11c-2.46,2.82-6.33,3.81-9.56,3.64-8.5-.53-13.26-6.57-13.26-15.01s5.63-15.13,14.08-15.13c4.11,0,6.98,1.41,8.5,3.75l.53-3.11ZM240.01,108.07c0,4.05,2.58,6.33,5.81,6.33,3.64,0,5.98-2.93,5.98-6.33,0-3.87-2.17-6.39-5.98-6.39-3.23,0-5.81,2.35-5.81,6.39Z"></path><path class="cls-1" d="M279.53,81.44v41.11h-10.67v-41.11h10.67Z"></path><path class="cls-1" d="M307.39,93.58h10.15v28.97h-9.97l-.47-3.11c-2.46,2.82-6.33,3.81-9.56,3.64-8.5-.53-13.25-6.57-13.25-15.01s5.63-15.13,14.08-15.13c4.11,0,6.98,1.41,8.5,3.75l.53-3.11ZM295.02,108.07c0,4.05,2.58,6.33,5.81,6.33,3.64,0,5.98-2.93,5.98-6.33,0-3.87-2.17-6.39-5.98-6.39-3.23,0-5.81,2.35-5.81,6.39Z"></path><path class="cls-1" d="M338.18,122.56v-41.06h31.5v9.74h-20v7.68h18.77v9.5h-18.77v14.14h-11.5Z"></path><path class="cls-1" d="M380.23,80.68c2.99,0,6.04,1.82,6.04,5.45s-3.05,5.4-6.04,5.4-6.1-1.82-6.1-5.4,3.05-5.45,6.1-5.45ZM385.63,122.56v-28.5h-10.85v28.5h10.85Z"></path><path class="cls-1" d="M405.28,85.37v8.39h6.51v8.27h-6.57v9.5c.06,2.05,1.23,2.82,2.87,2.82,1.06,0,2.29-.41,3.17-1l2.35,7.98c-2.46,1.41-5.34,1.94-8.33,1.94-5.75,0-10.91-2.64-10.73-11.73v-9.5h-4.63v-8.27h4.63v-7.21l10.73-1.17Z"></path><path class="cls-1" d="M437.01,122.56v-16.01c0-3.58-2.05-4.81-4.05-4.81-2.58,0-4.99,1.76-4.99,5.57v15.25h-10.67v-28.97h9.56l.47,3.17c2.46-2.87,6.1-3.93,9.15-3.87,6.1.06,11.32,3.28,11.32,13.61v16.07h-10.79Z"></path><path class="cls-1" d="M483.34,111.12h-20.23c.76,2.58,4.11,3.7,6.45,3.7,3.17,0,5.57-.94,7.45-2.35l5.28,5.92c-3.46,3.23-8.21,4.81-13.2,4.81-9.15,0-16.89-4.52-16.89-15.07s8.27-15.25,16.13-15.25c10.26,0,17.48,6.8,15.01,18.24ZM473.66,104.2c-.29-4.58-9.79-4.75-10.5,0h10.5Z"></path><path class="cls-1" d="M489.85,111.65c4.4,2.87,7.92,3.11,10.26,3.23,1.94,0,2.93-.47,2.93-1.41s-.94-1.41-3.05-1.58c-5.63-.18-12.43-2.46-12.43-9.5s6.57-9.5,13.37-9.5c4.69,0,9.03,1.41,11.85,3.52l-4.58,6.45c-1.58-1-4.93-1.82-7.27-1.76-1.53,0-2.58.35-2.58,1.41,0,.53.41,1.35,2.17,1.41,6.04.18,13.31,1.88,13.31,9.56,0,7.16-6.51,9.85-13.49,9.85-5.04,0-10.73-1.41-14.02-3.81l3.52-7.86Z"></path><path class="cls-1" d="M519.82,111.65c4.4,2.87,7.92,3.11,10.26,3.23,1.94,0,2.93-.47,2.93-1.41s-.94-1.41-3.05-1.58c-5.63-.18-12.43-2.46-12.43-9.5s6.57-9.5,13.37-9.5c4.69,0,9.03,1.41,11.85,3.52l-4.58,6.45c-1.58-1-4.93-1.82-7.27-1.76-1.53,0-2.58.35-2.58,1.41,0,.53.41,1.35,2.17,1.41,6.04.18,13.31,1.88,13.31,9.56,0,7.16-6.51,9.85-13.49,9.85-5.04,0-10.73-1.41-14.02-3.81l3.52-7.86Z"></path></g></g></g></g></svg>